<svg enable-background="new 0 0 394.8 394.8" viewBox="0 0 394.8 394.8" xmlns="http://www.w3.org/2000/svg"><path d="m214.4 165.2c-5.2-2.8-11.6-4.4-18.8-4.4-5.2 0-10 .8-14.4 2.4s-8 4-10.8 7.2-5.2 7.2-6.8 11.6c-1.6 4.8-2.4 9.6-2.4 15.2 0 5.2.8 10.4 2.4 14.8s3.6 8.4 6.8 11.6c2.8 3.2 6.4 5.6 10.8 7.6 4.4 1.6 9.2 2.8 14.8 2.8s10.4-.8 14.8-2.4 8-4.4 10.8-7.6 5.2-7.2 6.8-11.6 2.4-9.2 2.4-14.8c0-7.2-1.2-13.6-4-19.2-3.2-6-7.2-10.4-12.4-13.2zm-1.2 46c-2 4-4.4 6.8-7.2 8.4-3.2 2-6.4 2.8-10 2.8-2.8 0-5.6-.4-8-1.6s-4.4-2.8-6.4-4.8-3.2-4.8-4.4-8c-.8-3.2-1.6-6.8-1.6-10.8s.4-7.6 1.6-10.8 2.4-6 4-8 4-3.6 6.4-4.8 5.2-1.6 8-1.6c4 0 7.6.8 10.8 2.8s5.6 4.8 7.2 8.4 2.4 8.4 2.4 13.6c0 5.6-1.2 10.4-2.8 14.4z"/><path d="m345.6 78.8-.4-.4v-.4l-76-76-.4-.4s-.4 0-.4-.4c0 0-.4 0-.4-.4-1.2-.8-2.4-.8-4-.8h-188.4c-7.6 0-14.4 3.2-19.2 8s-8 12-8 19.2v340.4c0 7.2 2.8 14 7.6 18.8l.4.4c4.8 4.8 12 8 19.2 8h243.6c7.6 0 14.4-3.2 19.2-8s8-12 8-19.2v-284.8c0-1.6-.4-2.8-.8-4zm-74-50 45.2 45.2h-33.2c-3.2 0-6.4-1.2-8.4-3.6-2-2-3.6-5.2-3.6-8.4zm57.6 338.8c0 2.8-1.2 5.2-3.2 7.2s-4.4 3.2-7.2 3.2h-243.2c-2.8 0-5.2-1.2-7.2-3.2l-.4-.4c-1.6-2-2.8-4.4-2.8-6.8v-340.8c0-2.8 1.2-5.2 3.2-7.2s4.4-3.2 7.2-3.2h179.2v45.2c0 8 3.2 15.2 8.8 20.8 5.2 5.2 12.8 8.4 20.8 8.4h44.8z"/><path d="m260 163.2c-4 1.6-7.6 4-10.8 7.2s-5.6 7.2-7.2 11.6-2.4 9.6-2.4 15.2c0 3.6.4 6.8.8 10 .8 3.2 1.6 6 2.8 8.8s2.8 5.2 4.8 7.6 4.4 4.4 6.8 6 5.2 2.4 8.4 3.2 6.4 1.2 10 1.2c4.8 0 9.2-.8 12.8-2.4s6.8-3.6 9.2-6 4-5.2 5.2-7.6c1.2-2.8 1.6-5.2 1.6-7.2 0-1.6-.8-3.2-2-4.4s-2.8-1.6-4.4-1.6c-2 0-3.6.4-4.4 1.6s-1.6 2.8-2.4 4.4c-1.6 4-3.6 6.8-6.4 8.8s-6.4 3.2-10.4 3.2c-3.6 0-7.2-.8-10-2.8s-5.2-4.4-6.4-8c-1.6-3.6-2.4-8-2.4-13.6 0-8 1.6-14.4 5.2-18.8s8-6.8 14-6.8c3.6 0 6.8.8 9.2 2.4s4.8 4.4 6.4 8c1.2 2 2 3.6 3.2 4.4.8.8 2.4 1.2 4 1.2s3.2-.8 4-2c1.2-1.2 1.6-2.8 1.6-4.4 0-2.8-1.2-6-3.6-9.6-2.4-3.2-5.6-6-10.4-8.4-4.4-2.4-9.6-3.6-15.2-3.6-2.8 0-7.2.8-11.6 2.4z"/><path d="m141.2 168.4c-2.8-2.4-6-4-9.6-5.2-3.6-.8-7.6-1.2-12.4-1.2h-18.4c-3.2 0-5.2.8-6.8 2-1.2 1.2-2 3.6-2 6.8v51.6c0 2.4 0 4 .8 5.6.4 1.6 1.2 2.4 2.4 3.2s3.2 1.2 6 1.2h18.4c3.2 0 6-.4 8.8-.8 2.4-.4 4.8-1.2 7.2-2 2.4-1.2 4.4-2.4 6-4 2.4-2.4 4.4-4.8 6-7.6s2.8-6 3.6-9.6 1.2-7.2 1.2-11.6c-.4-12.4-4-22-11.2-28.4zm-10.8 49.2c-1.2.8-2.4 1.6-3.6 2-1.6.4-2.8.8-4 .8s-3.2 0-5.6 0h-10.8v-47.2h9.6c4.4 0 8 .4 11.2 1.6 3.2.8 5.6 3.2 7.6 6.8s3.2 8.8 3.2 15.6c-.4 9.6-2.8 16.4-7.6 20.4z"/></svg>